# xmcd CD database file
#
# Track frame offsets:
#	150
#	29720
#	73930
#	104235
#	132419
#	162736
#	192798
#	215743
#	250595
#
# Disc length: 4345 seconds
#
# Revision: 0
# Processed by: cddbd v1.5.1PL2 Copyright (c) Steve Scherf et al.
# Submitted via: CDex 1.50
#
DISCID=9410f709
DTITLE=Laurent de Wilde - The Present
DYEAR=2006
DGENRE=Jazz
TTITLE0=The Present
TTITLE1=Move On
TTITLE2=Fleurette Africaine
TTITLE3=One for Ernie
TTITLE4=Quiet - Not Quite
TTITLE5=The Club
TTITLE6=Up and Down
TTITLE7=Late Late Blues
TTITLE8=Video bonus - The Present
EXTD=YEAR: 2006
EXTT0=
EXTT1=
EXTT2=
EXTT3=
EXTT4=
EXTT5=
EXTT6=
EXTT7=
EXTT8=
PLAYORDER=
